<svg width="17" height="17" viewBox="0 0 17 17" fill="none" xmlns="http://www.w3.org/2000/svg">
<path d="M6.39991 15.4999L6.22421 13.0436C6.20159 12.731 6.24364 12.417 6.34773 12.1214C6.45183 11.8257 6.61574 11.5546 6.82924 11.3251C7.04274 11.0956 7.30125 10.9126 7.58863 10.7874C7.87602 10.6623 8.18611 10.5977 8.49957 10.5977C8.81303 10.5977 9.12312 10.6623 9.41051 10.7874C9.69789 10.9126 9.9564 11.0956 10.1699 11.3251C10.3834 11.5546 10.5473 11.8257 10.6514 12.1214C10.7555 12.417 10.7976 12.731 10.7749 13.0436L10.5999 15.4999" stroke="#ADADAA" stroke-width="1.5" stroke-linecap="round" stroke-linejoin="round"/>
<path d="M6.39991 15.4999L6.22421 13.0436C6.20159 12.731 6.24364 12.417 6.34773 12.1214C6.45183 11.8257 6.61574 11.5546 6.82924 11.3251C7.04274 11.0956 7.30125 10.9126 7.58863 10.7874C7.87602 10.6623 8.18611 10.5977 8.49957 10.5977C8.81303 10.5977 9.12312 10.6623 9.41051 10.7874C9.69789 10.9126 9.9564 11.0956 10.1699 11.3251C10.3834 11.5546 10.5473 11.8257 10.6514 12.1214C10.7555 12.417 10.7976 12.731 10.7749 13.0436L10.5999 15.4999" stroke="black" stroke-opacity="0.2" stroke-width="1.5" stroke-linecap="round" stroke-linejoin="round"/>
<path d="M1.74643 9.34983C1.49863 7.74122 1.37543 6.93762 1.67923 6.22432C1.98303 5.51101 2.65783 5.02381 4.00674 4.04871L5.01474 3.32001C6.69265 2.1069 7.53195 1.5 8.50075 1.5C9.46816 1.5 10.3068 2.1069 11.9854 3.32001L12.9934 4.04871C14.3423 5.02381 15.0164 5.51171 15.3209 6.22432C15.6247 6.93762 15.5015 7.74122 15.2544 9.34913L15.0437 10.7211C14.6937 13.0003 14.518 14.1399 13.7004 14.8203C12.8828 15.5007 11.6879 15.5 9.29806 15.5H7.70205C5.31154 15.5 4.11664 15.5 3.29904 14.8203C2.48143 14.1399 2.30643 13.0003 1.95643 10.7204L1.74643 9.34983Z" stroke="#ADADAA" stroke-width="1.5" stroke-linecap="round" stroke-linejoin="round"/>
<path d="M1.74643 9.34983C1.49863 7.74122 1.37543 6.93762 1.67923 6.22432C1.98303 5.51101 2.65783 5.02381 4.00674 4.04871L5.01474 3.32001C6.69265 2.1069 7.53195 1.5 8.50075 1.5C9.46816 1.5 10.3068 2.1069 11.9854 3.32001L12.9934 4.04871C14.3423 5.02381 15.0164 5.51171 15.3209 6.22432C15.6247 6.93762 15.5015 7.74122 15.2544 9.34913L15.0437 10.7211C14.6937 13.0003 14.518 14.1399 13.7004 14.8203C12.8828 15.5007 11.6879 15.5 9.29806 15.5H7.70205C5.31154 15.5 4.11664 15.5 3.29904 14.8203C2.48143 14.1399 2.30643 13.0003 1.95643 10.7204L1.74643 9.34983Z" stroke="black" stroke-opacity="0.2" stroke-width="1.5" stroke-linecap="round" stroke-linejoin="round"/>
</svg>
