<svg width="30" height="25" viewBox="0 0 30 25" fill="none" xmlns="http://www.w3.org/2000/svg">
<path d="M27.6338 2.27272C26.507 3.39506 25.4648 4.74186 24.507 6.31313C23.6056 7.8844 23.0141 9.45567 22.7324 11.0269C24.8169 11.0269 26.5352 11.6162 27.8873 12.7946C29.2958 13.9731 30 15.6285 30 17.7609C30 19.8373 29.3521 21.5769 28.0563 22.9798C26.8169 24.3266 25.1831 25 23.1549 25C21.1268 25 19.4648 24.2985 18.169 22.8956C16.9296 21.4366 16.3099 19.6689 16.3099 17.5926C16.3099 14.1134 17.1549 10.7744 18.8451 7.57575C20.5352 4.32099 22.6761 1.79574 25.2676 0L27.6338 2.27272ZM11.3239 2.27272C10.1972 3.39506 9.15493 4.74186 8.19718 6.31313C7.29577 7.8844 6.70423 9.45567 6.42253 11.0269C8.50704 11.0269 10.2254 11.6162 11.5775 12.7946C12.9859 13.9731 13.6901 15.6285 13.6901 17.7609C13.6901 19.8373 13.0423 21.5769 11.7465 22.9798C10.507 24.3266 8.87324 25 6.84507 25C4.8169 25 3.15493 24.2985 1.85916 22.8956C0.619718 21.4366 0 19.6689 0 17.5926C0 14.1134 0.845071 10.7744 2.53521 7.57575C4.22535 4.32099 6.3662 1.79574 8.95775 0L11.3239 2.27272Z" fill="black"/>
</svg>
