<svg width="30" height="25" viewBox="0 0 30 25" fill="none" xmlns="http://www.w3.org/2000/svg">
<path d="M18.6761 22.7273C19.8028 21.6049 20.8451 20.2581 21.8028 18.6869C22.7606 17.1156 23.3521 15.5443 23.5775 13.9731C21.493 13.9731 19.7465 13.3838 18.338 12.2054C16.9859 10.9708 16.3099 9.31537 16.3099 7.23905C16.3099 5.10662 16.9296 3.367 18.169 2.0202C19.4648 0.6734 21.1268 0 23.1549 0C25.1831 0 26.8169 0.701458 28.0563 2.10438C29.3521 3.5073 30 5.27497 30 7.40741C30 10.8305 29.1549 14.1695 27.4648 17.4242C25.831 20.679 23.6901 23.2043 21.0423 25L18.6761 22.7273ZM2.3662 22.7273C3.49296 21.6049 4.53521 20.2581 5.49296 18.6869C6.4507 17.1156 7.04225 15.5443 7.26761 13.9731C5.1831 13.9731 3.43662 13.3838 2.02817 12.2054C0.676056 10.9708 0 9.31537 0 7.23905C0 5.10662 0.619718 3.367 1.85916 2.0202C3.15493 0.6734 4.8169 0 6.84507 0C8.87324 0 10.507 0.701458 11.7465 2.10438C13.0423 3.5073 13.6901 5.27497 13.6901 7.40741C13.6901 10.8305 12.8451 14.1695 11.1549 17.4242C9.52113 20.679 7.38028 23.2043 4.73239 25L2.3662 22.7273Z" fill="black"/>
</svg>
